<mxfile host="app.diagrams.net" modified="2024-08-05T08:38:03.753Z" agent="Mozilla/5.0 (Windows NT 10.0; Win64; x64) AppleWebKit/537.36 (KHTML, like Gecko) Chrome/126.0.0.0 Safari/537.36 Edg/126.0.0.0" etag="LO2XT4vTxMbftS0c1Wf5" version="24.2.3" type="device">
  <diagram name="1 oldal" id="OFXsPoVlSFCiyLKFKfhQ">
    <mxGraphModel dx="1042" dy="535" grid="1" gridSize="10" guides="1" tooltips="1" connect="1" arrows="1" fold="1" page="1" pageScale="1" pageWidth="3300" pageHeight="4681" math="0" shadow="0">
      <root>
        <mxCell id="0" />
        <mxCell id="1" parent="0" />
        <mxCell id="pYjQo3McfKP30QsoJIOT-8" value="" style="ellipse;whiteSpace=wrap;html=1;" vertex="1" parent="1">
          <mxGeometry x="650" y="260" width="120" height="60" as="geometry" />
        </mxCell>
        <mxCell id="pYjQo3McfKP30QsoJIOT-1" value="Felhasználó" style="rounded=0;whiteSpace=wrap;html=1;" vertex="1" parent="1">
          <mxGeometry x="440" y="260" width="120" height="60" as="geometry" />
        </mxCell>
        <mxCell id="pYjQo3McfKP30QsoJIOT-5" value="&lt;u&gt;id&lt;/u&gt;" style="ellipse;whiteSpace=wrap;html=1;align=center;" vertex="1" parent="1">
          <mxGeometry x="660" y="200" width="100" height="40" as="geometry" />
        </mxCell>
        <mxCell id="pYjQo3McfKP30QsoJIOT-6" value="Név" style="ellipse;whiteSpace=wrap;html=1;align=center;perimeterSpacing=0;" vertex="1" parent="1">
          <mxGeometry x="660" y="270" width="100" height="40" as="geometry" />
        </mxCell>
        <mxCell id="pYjQo3McfKP30QsoJIOT-9" value="Vezetéknév" style="ellipse;whiteSpace=wrap;html=1;align=center;" vertex="1" parent="1">
          <mxGeometry x="780" y="250" width="100" height="40" as="geometry" />
        </mxCell>
        <mxCell id="pYjQo3McfKP30QsoJIOT-10" value="Keresztnév" style="ellipse;whiteSpace=wrap;html=1;align=center;" vertex="1" parent="1">
          <mxGeometry x="780" y="300" width="100" height="40" as="geometry" />
        </mxCell>
        <mxCell id="pYjQo3McfKP30QsoJIOT-11" value="" style="endArrow=none;html=1;rounded=0;entryX=0;entryY=0.5;entryDx=0;entryDy=0;exitX=1;exitY=0.5;exitDx=0;exitDy=0;" edge="1" parent="1" source="pYjQo3McfKP30QsoJIOT-8" target="pYjQo3McfKP30QsoJIOT-9">
          <mxGeometry width="50" height="50" relative="1" as="geometry">
            <mxPoint x="750" y="300" as="sourcePoint" />
            <mxPoint x="780" y="280" as="targetPoint" />
          </mxGeometry>
        </mxCell>
        <mxCell id="pYjQo3McfKP30QsoJIOT-12" value="" style="endArrow=none;html=1;rounded=0;entryX=0;entryY=0.5;entryDx=0;entryDy=0;exitX=1;exitY=0.5;exitDx=0;exitDy=0;" edge="1" parent="1" source="pYjQo3McfKP30QsoJIOT-8" target="pYjQo3McfKP30QsoJIOT-10">
          <mxGeometry width="50" height="50" relative="1" as="geometry">
            <mxPoint x="750" y="300" as="sourcePoint" />
            <mxPoint x="800" y="250" as="targetPoint" />
          </mxGeometry>
        </mxCell>
        <mxCell id="pYjQo3McfKP30QsoJIOT-13" value="" style="endArrow=none;html=1;rounded=0;entryX=0;entryY=0.5;entryDx=0;entryDy=0;exitX=1;exitY=0.5;exitDx=0;exitDy=0;" edge="1" parent="1" source="pYjQo3McfKP30QsoJIOT-1" target="pYjQo3McfKP30QsoJIOT-5">
          <mxGeometry width="50" height="50" relative="1" as="geometry">
            <mxPoint x="750" y="300" as="sourcePoint" />
            <mxPoint x="800" y="250" as="targetPoint" />
          </mxGeometry>
        </mxCell>
        <mxCell id="pYjQo3McfKP30QsoJIOT-14" value="" style="endArrow=none;html=1;rounded=0;entryX=0;entryY=0.5;entryDx=0;entryDy=0;exitX=1;exitY=0.5;exitDx=0;exitDy=0;" edge="1" parent="1" source="pYjQo3McfKP30QsoJIOT-1" target="pYjQo3McfKP30QsoJIOT-8">
          <mxGeometry width="50" height="50" relative="1" as="geometry">
            <mxPoint x="750" y="300" as="sourcePoint" />
            <mxPoint x="800" y="250" as="targetPoint" />
          </mxGeometry>
        </mxCell>
        <mxCell id="pYjQo3McfKP30QsoJIOT-15" value="Feladat" style="rounded=0;whiteSpace=wrap;html=1;" vertex="1" parent="1">
          <mxGeometry x="440" y="520" width="120" height="60" as="geometry" />
        </mxCell>
        <mxCell id="pYjQo3McfKP30QsoJIOT-17" value="Létrehozza" style="rhombus;whiteSpace=wrap;html=1;" vertex="1" parent="1">
          <mxGeometry x="460" y="380" width="80" height="80" as="geometry" />
        </mxCell>
        <mxCell id="pYjQo3McfKP30QsoJIOT-19" value="" style="endArrow=none;html=1;rounded=0;entryX=0.5;entryY=1;entryDx=0;entryDy=0;exitX=0.5;exitY=0;exitDx=0;exitDy=0;" edge="1" parent="1" source="pYjQo3McfKP30QsoJIOT-17" target="pYjQo3McfKP30QsoJIOT-1">
          <mxGeometry width="50" height="50" relative="1" as="geometry">
            <mxPoint x="750" y="400" as="sourcePoint" />
            <mxPoint x="800" y="350" as="targetPoint" />
          </mxGeometry>
        </mxCell>
        <mxCell id="pYjQo3McfKP30QsoJIOT-20" value="" style="endArrow=none;html=1;rounded=0;entryX=0.5;entryY=1;entryDx=0;entryDy=0;exitX=0.5;exitY=0;exitDx=0;exitDy=0;" edge="1" parent="1" source="pYjQo3McfKP30QsoJIOT-15" target="pYjQo3McfKP30QsoJIOT-17">
          <mxGeometry width="50" height="50" relative="1" as="geometry">
            <mxPoint x="750" y="400" as="sourcePoint" />
            <mxPoint x="800" y="350" as="targetPoint" />
          </mxGeometry>
        </mxCell>
        <mxCell id="pYjQo3McfKP30QsoJIOT-21" value="Tartozik hozzá" style="rhombus;whiteSpace=wrap;html=1;" vertex="1" parent="1">
          <mxGeometry x="290" y="360" width="90" height="90" as="geometry" />
        </mxCell>
        <mxCell id="pYjQo3McfKP30QsoJIOT-22" value="" style="endArrow=none;html=1;rounded=0;exitX=0;exitY=0.5;exitDx=0;exitDy=0;entryX=0.5;entryY=1;entryDx=0;entryDy=0;" edge="1" parent="1" source="pYjQo3McfKP30QsoJIOT-15" target="pYjQo3McfKP30QsoJIOT-21">
          <mxGeometry width="50" height="50" relative="1" as="geometry">
            <mxPoint x="750" y="400" as="sourcePoint" />
            <mxPoint x="800" y="350" as="targetPoint" />
            <Array as="points">
              <mxPoint x="340" y="550" />
            </Array>
          </mxGeometry>
        </mxCell>
        <mxCell id="pYjQo3McfKP30QsoJIOT-23" value="" style="endArrow=none;html=1;rounded=0;exitX=0.5;exitY=0;exitDx=0;exitDy=0;entryX=0;entryY=0.5;entryDx=0;entryDy=0;" edge="1" parent="1" source="pYjQo3McfKP30QsoJIOT-21" target="pYjQo3McfKP30QsoJIOT-1">
          <mxGeometry width="50" height="50" relative="1" as="geometry">
            <mxPoint x="750" y="400" as="sourcePoint" />
            <mxPoint x="800" y="350" as="targetPoint" />
            <Array as="points">
              <mxPoint x="340" y="280" />
            </Array>
          </mxGeometry>
        </mxCell>
        <mxCell id="pYjQo3McfKP30QsoJIOT-24" value="" style="endArrow=none;html=1;rounded=0;entryX=0;entryY=0.5;entryDx=0;entryDy=0;" edge="1" parent="1" target="pYjQo3McfKP30QsoJIOT-25">
          <mxGeometry width="50" height="50" relative="1" as="geometry">
            <mxPoint x="560" y="550" as="sourcePoint" />
            <mxPoint x="640" y="540" as="targetPoint" />
          </mxGeometry>
        </mxCell>
        <mxCell id="pYjQo3McfKP30QsoJIOT-25" value="&lt;u&gt;id&lt;/u&gt;" style="ellipse;whiteSpace=wrap;html=1;align=center;" vertex="1" parent="1">
          <mxGeometry x="630" y="450" width="100" height="40" as="geometry" />
        </mxCell>
        <mxCell id="pYjQo3McfKP30QsoJIOT-26" value="Név" style="ellipse;whiteSpace=wrap;html=1;align=center;" vertex="1" parent="1">
          <mxGeometry x="630" y="510" width="100" height="40" as="geometry" />
        </mxCell>
        <mxCell id="pYjQo3McfKP30QsoJIOT-27" value="Leírás&lt;span style=&quot;color: rgba(0, 0, 0, 0); font-family: monospace; font-size: 0px; text-align: start; text-wrap: nowrap;&quot;&gt;%3CmxGraphModel%3E%3Croot%3E%3CmxCell%20id%3D%220%22%2F%3E%3CmxCell%20id%3D%221%22%20parent%3D%220%22%2F%3E%3CmxCell%20id%3D%222%22%20value%3D%22Attribute%22%20style%3D%22ellipse%3BwhiteSpace%3Dwrap%3Bhtml%3D1%3Balign%3Dcenter%3B%22%20vertex%3D%221%22%20parent%3D%221%22%3E%3CmxGeometry%20x%3D%22720%22%20y%3D%22260%22%20width%3D%22100%22%20height%3D%2240%22%20as%3D%22geometry%22%2F%3E%3C%2FmxCell%3E%3C%2Froot%3E%3C%2FmxGraphModel%3E&lt;/span&gt;" style="ellipse;whiteSpace=wrap;html=1;align=center;" vertex="1" parent="1">
          <mxGeometry x="630" y="570" width="100" height="40" as="geometry" />
        </mxCell>
        <mxCell id="pYjQo3McfKP30QsoJIOT-28" value="Határidő" style="ellipse;whiteSpace=wrap;html=1;align=center;" vertex="1" parent="1">
          <mxGeometry x="630" y="630" width="100" height="40" as="geometry" />
        </mxCell>
        <mxCell id="pYjQo3McfKP30QsoJIOT-30" value="" style="endArrow=none;html=1;rounded=0;entryX=0;entryY=0.5;entryDx=0;entryDy=0;exitX=1;exitY=0.5;exitDx=0;exitDy=0;" edge="1" parent="1" source="pYjQo3McfKP30QsoJIOT-15" target="pYjQo3McfKP30QsoJIOT-26">
          <mxGeometry width="50" height="50" relative="1" as="geometry">
            <mxPoint x="750" y="600" as="sourcePoint" />
            <mxPoint x="800" y="550" as="targetPoint" />
          </mxGeometry>
        </mxCell>
        <mxCell id="pYjQo3McfKP30QsoJIOT-31" value="" style="endArrow=none;html=1;rounded=0;exitX=0;exitY=0.5;exitDx=0;exitDy=0;entryX=1;entryY=0.5;entryDx=0;entryDy=0;" edge="1" parent="1" source="pYjQo3McfKP30QsoJIOT-27" target="pYjQo3McfKP30QsoJIOT-15">
          <mxGeometry width="50" height="50" relative="1" as="geometry">
            <mxPoint x="760" y="610" as="sourcePoint" />
            <mxPoint x="810" y="560" as="targetPoint" />
          </mxGeometry>
        </mxCell>
        <mxCell id="pYjQo3McfKP30QsoJIOT-32" value="" style="endArrow=none;html=1;rounded=0;exitX=0;exitY=0.5;exitDx=0;exitDy=0;entryX=1;entryY=0.5;entryDx=0;entryDy=0;" edge="1" parent="1" source="pYjQo3McfKP30QsoJIOT-28" target="pYjQo3McfKP30QsoJIOT-15">
          <mxGeometry width="50" height="50" relative="1" as="geometry">
            <mxPoint x="770" y="620" as="sourcePoint" />
            <mxPoint x="820" y="570" as="targetPoint" />
          </mxGeometry>
        </mxCell>
      </root>
    </mxGraphModel>
  </diagram>
</mxfile>
